<?xml version="1.0" encoding="utf-8"?>
<!-- Generator: Adobe Illustrator 21.0.0, SVG Export Plug-In . SVG Version: 6.00 Build 0)  -->
<svg version="1.1" xmlns="http://www.w3.org/2000/svg" xmlns:xlink="http://www.w3.org/1999/xlink" x="0px" y="0px"
	 viewBox="0 0 585.1 433" style="enable-background:new 0 0 585.1 433;" xml:space="preserve">
<style type="text/css">
	.st0{display:none;}
	.st1{display:inline;}
	.st2{fill:url(#SVGID_1_);}
	.st3{fill:url(#SVGID_2_);}
	.st4{fill:url(#SVGID_3_);}
	.st5{fill:url(#SVGID_4_);}
	.st6{fill:url(#SVGID_5_);}
	.st7{fill:#494949;}
	.st8{fill:#FFFFFF;}
	.st9{stroke:#FFFFFF;stroke-width:3;stroke-miterlimit:10;}
	.st10{fill:#FFFFFF;stroke:#000000;stroke-width:3;stroke-miterlimit:10;}
	.st11{fill:#3F413E;}
	.st12{fill:#FFFFFF;stroke:#3F413E;stroke-width:3;stroke-miterlimit:10;}
</style>
<g id="Logo" class="st0">
	<g class="st1">
		<linearGradient id="SVGID_1_" gradientUnits="userSpaceOnUse" x1="238.2992" y1="270.7683" x2="346.8359" y2="162.2317">
			<stop  offset="0" style="stop-color:#8360C3"/>
			<stop  offset="0.8569" style="stop-color:#3BB198"/>
			<stop  offset="1" style="stop-color:#2EBF91"/>
		</linearGradient>
		<path class="st2" d="M106,15.1c19.4,0,53.4,15.3,93.1,41.9c43.3,29,90.6,68.9,136.6,115.5c54.4,55.1,99.9,112.3,128.2,161
			c13.1,22.6,22,42.7,25.6,58.1c3.2,13.6,1.7,21.1-0.8,23.6c-2.1,2.1-6.3,2.6-9.5,2.6c-19.4,0-53.4-15.3-93.1-41.9
			c-43.3-29-90.6-68.9-136.6-115.5c-54.4-55.1-99.9-112.3-128.2-161c-13.1-22.6-22-42.7-25.6-58.1c-3.2-13.6-1.7-21.1,0.8-23.6
			C98.5,15.6,102.8,15.1,106,15.1L106,15.1 M106,0c-8.7,0-15.6,2.3-20.3,7c-29.8,30.1,38.7,148.4,153,264
			C334.8,368.5,432.8,433,479.1,433c8.7,0,15.6-2.3,20.3-7c29.8-30.1-38.7-148.4-153-264C250.3,64.5,152.4,0,106,0L106,0z"/>
	</g>
	<g class="st1">
		<linearGradient id="SVGID_2_" gradientUnits="userSpaceOnUse" x1="292.5676" y1="293.6993" x2="292.5676" y2="139.3007">
			<stop  offset="0" style="stop-color:#8360C3"/>
			<stop  offset="0.8569" style="stop-color:#3BB198"/>
			<stop  offset="1" style="stop-color:#2EBF91"/>
		</linearGradient>
		<path class="st3" d="M292.6,154.4c76.9,0,149,7.9,203,22.1c58.9,15.5,74.4,32.9,74.4,40s-15.6,24.4-74.4,40
			c-54,14.3-126.1,22.1-203,22.1s-149-7.9-203-22.1c-58.9-15.5-74.4-32.9-74.4-40s15.6-24.4,74.4-40
			C143.6,162.3,215.7,154.4,292.6,154.4 M292.6,139.3C131,139.3,0,173.9,0,216.5s131,77.2,292.6,77.2s292.6-34.6,292.6-77.2
			S454.1,139.3,292.6,139.3L292.6,139.3z"/>
	</g>
	<g class="st1">
		<linearGradient id="SVGID_3_" gradientUnits="userSpaceOnUse" x1="238.2993" y1="162.2317" x2="346.8359" y2="270.7683">
			<stop  offset="0" style="stop-color:#8360C3"/>
			<stop  offset="0.8569" style="stop-color:#3BB198"/>
			<stop  offset="1" style="stop-color:#2EBF91"/>
		</linearGradient>
		<path class="st4" d="M479.1,0v15.1c3.2,0,7.5,0.4,9.5,2.6c2.5,2.5,4,10,0.8,23.6c-3.6,15.4-12.4,35.5-25.6,58.1
			c-28.3,48.8-73.8,106-128.2,161C289.7,307,242.5,347,199.1,376c-39.8,26.6-73.7,41.9-93.1,41.9c-3.2,0-7.5-0.4-9.5-2.6
			c-2.5-2.5-4-10-0.8-23.6c3.6-15.4,12.4-35.5,25.6-58.1c28.3-48.8,73.8-106,128.2-161C295.4,126,342.6,86,386,57
			c39.8-26.6,73.7-41.9,93.1-41.9L479.1,0 M479.1,0c-46.4,0-144.3,64.5-240.5,161.9C124.4,277.6,55.9,395.8,85.7,426
			c4.7,4.8,11.6,7,20.3,7c46.4,0,144.3-64.5,240.5-161.9C460.7,155.4,529.2,37.2,499.4,7C494.7,2.3,487.8,0,479.1,0L479.1,0z"/>
	</g>
	<g id="Circle" class="st1">
		<radialGradient id="SVGID_4_" cx="292.5676" cy="217.4753" r="156.9792" gradientUnits="userSpaceOnUse">
			<stop  offset="0" style="stop-color:#ECF0F1"/>
			<stop  offset="0.482" style="stop-color:#EAEDEE"/>
			<stop  offset="0.8296" style="stop-color:#E3E4E5"/>
			<stop  offset="1" style="stop-color:#DDDDDD"/>
		</radialGradient>
		<circle class="st5" cx="292.6" cy="217.5" r="157"/>
		<g>
			
				<image style="overflow:visible;opacity:0.2;" width="1720" height="1720" xlink:href="B5773A05.png"  transform="matrix(0.24 0 0 0.24 94.7672 10.9364)">
			</image>
			<g>
				<linearGradient id="SVGID_5_" gradientUnits="userSpaceOnUse" x1="112.1977" y1="217.3633" x2="472.9375" y2="217.3633">
					<stop  offset="0" style="stop-color:#8360C3"/>
					<stop  offset="0.8569" style="stop-color:#3BB198"/>
					<stop  offset="1" style="stop-color:#2EBF91"/>
				</linearGradient>
				<path class="st6" d="M292.6,37c-99.6,0-180.4,80.8-180.4,180.4S193,397.7,292.6,397.7S472.9,317,472.9,217.4S392.2,37,292.6,37z
					 M292.6,371.1c-84.9,0-153.8-68.8-153.8-153.8c0-84.9,68.8-153.8,153.8-153.8c84.9,0,153.8,68.8,153.8,153.8
					C446.3,302.3,377.5,371.1,292.6,371.1z"/>
			</g>
		</g>
	</g>
	<g id="Number" class="st1">
		<g>
			
				<image style="overflow:visible;opacity:0.2;" width="716" height="723" xlink:href="B5773A07.png"  transform="matrix(0.36 0 0 0.3917 179.6685 97.9913)">
			</image>
			<g>
				<g>
					<path class="st7" d="M247.7,125.9c2.3,0,3.7,1.5,3.7,4v193c0,2.5-1.4,4-3.7,4h-24c-2.5,0-3.7-1.5-3.7-4V164.2l-14.3,2
						c-3,0.5-4.9-1.3-4.9-4.5v-24.1c0-3.3,1.4-5,4.4-5.3L247.7,125.9z"/>
					<path class="st7" d="M381.2,125.9c3,0,4.6,1.8,4.6,5v23.1c0,3.3-1.6,5-4.6,5h-52v39.5l55,18.9c2.8,1,3.9,2.8,3.9,5.5v68.9
						c0,22.9-11.3,35.2-32.3,35.2h-27.7c-21,0-32.3-12.3-32.3-35.2v-8c0-3.3,1.6-5,4.6-5h22.2c3,0,4.6,1.8,4.6,5v10.1h25.2
						c3,0,4.6-1.8,4.6-5v-46L302,224c-2.8-1-3.9-2.8-3.9-5.5V131c0-3.3,1.6-5,4.6-5H381.2z"/>
				</g>
			</g>
		</g>
	</g>
</g>
<g id="Logo_Black" class="st0">
	<g class="st1">
		<path d="M106,15.1c19.4,0,53.4,15.3,93.1,41.9c43.3,29,90.6,68.9,136.6,115.5c54.4,55.1,99.9,112.3,128.2,161
			c13.1,22.6,22,42.7,25.6,58.1c3.2,13.6,1.7,21.1-0.8,23.6c-2.1,2.1-6.3,2.6-9.5,2.6c-19.4,0-53.4-15.3-93.1-41.9
			c-43.3-29-90.6-68.9-136.6-115.5c-54.4-55.1-99.9-112.3-128.2-161c-13.1-22.6-22-42.7-25.6-58.1c-3.2-13.6-1.7-21.1,0.8-23.6
			C98.5,15.6,102.8,15.1,106,15.1L106,15.1 M106,0c-8.7,0-15.6,2.3-20.3,7c-29.8,30.1,38.7,148.4,153,264
			C334.8,368.5,432.8,433,479.1,433c8.7,0,15.6-2.3,20.3-7c29.8-30.1-38.7-148.4-153-264C250.3,64.5,152.4,0,106,0L106,0z"/>
	</g>
	<g class="st1">
		<path d="M292.6,154.4c76.9,0,149,7.9,203,22.1c58.9,15.5,74.4,32.9,74.4,40s-15.6,24.4-74.4,40c-54,14.3-126.1,22.1-203,22.1
			s-149-7.9-203-22.1c-58.9-15.5-74.4-32.9-74.4-40s15.6-24.4,74.4-40C143.6,162.3,215.7,154.4,292.6,154.4 M292.6,139.3
			C131,139.3,0,173.9,0,216.5s131,77.2,292.6,77.2s292.6-34.6,292.6-77.2S454.1,139.3,292.6,139.3L292.6,139.3z"/>
	</g>
	<g class="st1">
		<path d="M479.1,0v15.1c3.2,0,7.5,0.4,9.5,2.6c2.5,2.5,4,10,0.8,23.6c-3.6,15.4-12.4,35.5-25.6,58.1c-28.3,48.8-73.8,106-128.2,161
			C289.7,307,242.5,347,199.1,376c-39.8,26.6-73.7,41.9-93.1,41.9c-3.2,0-7.5-0.4-9.5-2.6c-2.5-2.5-4-10-0.8-23.6
			c3.6-15.4,12.4-35.5,25.6-58.1c28.3-48.8,73.8-106,128.2-161C295.4,126,342.6,86,386,57c39.8-26.6,73.7-41.9,93.1-41.9L479.1,0
			 M479.1,0c-46.4,0-144.3,64.5-240.5,161.9C124.4,277.6,55.9,395.8,85.7,426c4.7,4.8,11.6,7,20.3,7c46.4,0,144.3-64.5,240.5-161.9
			C460.7,155.4,529.2,37.2,499.4,7C494.7,2.3,487.8,0,479.1,0L479.1,0z"/>
	</g>
	<g id="Circle_copia" class="st1">
		<circle cx="292.6" cy="217.5" r="157"/>
		<g>
			<path d="M292.6,396.7c-98.9,0-179.4-80.5-179.4-179.4c0-98.9,80.5-179.4,179.4-179.4c98.9,0,179.4,80.5,179.4,179.4
				C471.9,316.3,391.5,396.7,292.6,396.7z M292.6,62.6c-85.3,0-154.8,69.4-154.8,154.8s69.4,154.8,154.8,154.8
				s154.8-69.4,154.8-154.8S377.9,62.6,292.6,62.6z"/>
			<path class="st8" d="M292.6,39c24.1,0,47.4,4.7,69.4,14c21.2,9,40.3,21.8,56.7,38.2c16.4,16.4,29.2,35.5,38.2,56.7
				c9.3,22,14,45.3,14,69.4s-4.7,47.4-14,69.4c-9,21.2-21.8,40.3-38.2,56.7c-16.4,16.4-35.5,29.2-56.7,38.2c-22,9.3-45.3,14-69.4,14
				c-24.1,0-47.4-4.7-69.4-14c-21.2-9-40.3-21.8-56.7-38.2c-16.4-16.4-29.2-35.5-38.2-56.7c-9.3-22-14-45.3-14-69.4
				s4.7-47.4,14-69.4c9-21.2,21.8-40.3,38.2-56.7C182.8,74.9,201.9,62,223.1,53C245.1,43.7,268.5,39,292.6,39 M292.6,373.1
				c85.9,0,155.8-69.9,155.8-155.8S378.5,61.6,292.6,61.6s-155.8,69.9-155.8,155.8S206.7,373.1,292.6,373.1 M292.6,37
				c-99.6,0-180.4,80.8-180.4,180.4S193,397.7,292.6,397.7S472.9,317,472.9,217.4S392.2,37,292.6,37L292.6,37z M292.6,371.1
				c-84.9,0-153.8-68.8-153.8-153.8c0-84.9,68.8-153.8,153.8-153.8c84.9,0,153.8,68.8,153.8,153.8
				C446.3,302.3,377.5,371.1,292.6,371.1L292.6,371.1z"/>
		</g>
	</g>
	<g id="Number_copia" class="st1">
		<g>
			
				<image style="overflow:visible;opacity:0.2;" width="716" height="723" xlink:href="B5773A02.png"  transform="matrix(0.36 0 0 0.3917 179.6685 97.9913)">
			</image>
			<g>
				<g>
					<path class="st9" d="M247.7,125.9c2.3,0,3.7,1.5,3.7,4v193c0,2.5-1.4,4-3.7,4h-24c-2.5,0-3.7-1.5-3.7-4V164.2l-14.3,2
						c-3,0.5-4.9-1.3-4.9-4.5v-24.1c0-3.3,1.4-5,4.4-5.3L247.7,125.9z"/>
					<path class="st9" d="M381.2,125.9c3,0,4.6,1.8,4.6,5v23.1c0,3.3-1.6,5-4.6,5h-52v39.5l55,18.9c2.8,1,3.9,2.8,3.9,5.5v68.9
						c0,22.9-11.3,35.2-32.3,35.2h-27.7c-21,0-32.3-12.3-32.3-35.2v-8c0-3.3,1.6-5,4.6-5h22.2c3,0,4.6,1.8,4.6,5v10.1h25.2
						c3,0,4.6-1.8,4.6-5v-46L302,224c-2.8-1-3.9-2.8-3.9-5.5V131c0-3.3,1.6-5,4.6-5H381.2z"/>
				</g>
			</g>
		</g>
	</g>
</g>
<g id="Logo_White" class="st0">
	<g id="Capa_10">
		<rect x="0" y="0" class="st1" width="585.1" height="433"/>
	</g>
	<g class="st1">
		<path class="st8" d="M106,15.1c19.4,0,53.4,15.3,93.1,41.9c43.3,29,90.6,68.9,136.6,115.5c54.4,55.1,99.9,112.3,128.2,161
			c13.1,22.6,22,42.7,25.6,58.1c3.2,13.6,1.7,21.1-0.8,23.6c-2.1,2.1-6.3,2.6-9.5,2.6c-19.4,0-53.4-15.3-93.1-41.9
			c-43.3-29-90.6-68.9-136.6-115.5c-54.4-55.1-99.9-112.3-128.2-161c-13.1-22.6-22-42.7-25.6-58.1c-3.2-13.6-1.7-21.1,0.8-23.6
			C98.5,15.6,102.8,15.1,106,15.1L106,15.1 M106,0c-8.7,0-15.6,2.3-20.3,7c-29.8,30.1,38.7,148.4,153,264
			C334.8,368.5,432.8,433,479.1,433c8.7,0,15.6-2.3,20.3-7c29.8-30.1-38.7-148.4-153-264C250.3,64.5,152.4,0,106,0L106,0z"/>
	</g>
	<g class="st1">
		<path class="st8" d="M292.6,154.4c76.9,0,149,7.9,203,22.1c58.9,15.5,74.4,32.9,74.4,40s-15.6,24.4-74.4,40
			c-54,14.3-126.1,22.1-203,22.1s-149-7.9-203-22.1c-58.9-15.5-74.4-32.9-74.4-40s15.6-24.4,74.4-40
			C143.6,162.3,215.7,154.4,292.6,154.4 M292.6,139.3C131,139.3,0,173.9,0,216.5s131,77.2,292.6,77.2s292.6-34.6,292.6-77.2
			S454.1,139.3,292.6,139.3L292.6,139.3z"/>
	</g>
	<g class="st1">
		<path class="st8" d="M479.1,0v15.1c3.2,0,7.5,0.4,9.5,2.6c2.5,2.5,4,10,0.8,23.6c-3.6,15.4-12.4,35.5-25.6,58.1
			c-28.3,48.8-73.8,106-128.2,161C289.7,307,242.5,347,199.1,376c-39.8,26.6-73.7,41.9-93.1,41.9c-3.2,0-7.5-0.4-9.5-2.6
			c-2.5-2.5-4-10-0.8-23.6c3.6-15.4,12.4-35.5,25.6-58.1c28.3-48.8,73.8-106,128.2-161C295.4,126,342.6,86,386,57
			c39.8-26.6,73.7-41.9,93.1-41.9L479.1,0 M479.1,0c-46.4,0-144.3,64.5-240.5,161.9C124.4,277.6,55.9,395.8,85.7,426
			c4.7,4.8,11.6,7,20.3,7c46.4,0,144.3-64.5,240.5-161.9C460.7,155.4,529.2,37.2,499.4,7C494.7,2.3,487.8,0,479.1,0L479.1,0z"/>
	</g>
	<g id="Circle_copia_2" class="st1">
		<circle class="st8" cx="292.6" cy="217.5" r="157"/>
		<g>
			<path class="st8" d="M292.6,396.7c-98.9,0-179.4-80.5-179.4-179.4c0-98.9,80.5-179.4,179.4-179.4c98.9,0,179.4,80.5,179.4,179.4
				C471.9,316.3,391.5,396.7,292.6,396.7z M292.6,62.6c-85.3,0-154.8,69.4-154.8,154.8s69.4,154.8,154.8,154.8
				s154.8-69.4,154.8-154.8S377.9,62.6,292.6,62.6z"/>
			<path d="M292.6,39c24.1,0,47.4,4.7,69.4,14c21.2,9,40.3,21.8,56.7,38.2c16.4,16.4,29.2,35.5,38.2,56.7c9.3,22,14,45.3,14,69.4
				s-4.7,47.4-14,69.4c-9,21.2-21.8,40.3-38.2,56.7c-16.4,16.4-35.5,29.2-56.7,38.2c-22,9.3-45.3,14-69.4,14
				c-24.1,0-47.4-4.7-69.4-14c-21.2-9-40.3-21.8-56.7-38.2c-16.4-16.4-29.2-35.5-38.2-56.7c-9.3-22-14-45.3-14-69.4
				s4.7-47.4,14-69.4c9-21.2,21.8-40.3,38.2-56.7C182.8,74.9,201.9,62,223.1,53C245.1,43.7,268.5,39,292.6,39 M292.6,373.1
				c85.9,0,155.8-69.9,155.8-155.8S378.5,61.6,292.6,61.6s-155.8,69.9-155.8,155.8S206.7,373.1,292.6,373.1 M292.6,37
				c-99.6,0-180.4,80.8-180.4,180.4S193,397.7,292.6,397.7S472.9,317,472.9,217.4S392.2,37,292.6,37L292.6,37z M292.6,371.1
				c-84.9,0-153.8-68.8-153.8-153.8c0-84.9,68.8-153.8,153.8-153.8c84.9,0,153.8,68.8,153.8,153.8
				C446.3,302.3,377.5,371.1,292.6,371.1L292.6,371.1z"/>
		</g>
	</g>
	<g id="Number_copia_2" class="st1">
		<g>
			
				<image style="overflow:visible;opacity:0.2;" width="716" height="723" xlink:href="B5773A03.png"  transform="matrix(0.36 0 0 0.3917 179.6685 97.9913)">
			</image>
			<g>
				<g>
					<path class="st10" d="M247.7,125.9c2.3,0,3.7,1.5,3.7,4v193c0,2.5-1.4,4-3.7,4h-24c-2.5,0-3.7-1.5-3.7-4V164.2l-14.3,2
						c-3,0.5-4.9-1.3-4.9-4.5v-24.1c0-3.3,1.4-5,4.4-5.3L247.7,125.9z"/>
					<path class="st10" d="M381.2,125.9c3,0,4.6,1.8,4.6,5v23.1c0,3.3-1.6,5-4.6,5h-52v39.5l55,18.9c2.8,1,3.9,2.8,3.9,5.5v68.9
						c0,22.9-11.3,35.2-32.3,35.2h-27.7c-21,0-32.3-12.3-32.3-35.2v-8c0-3.3,1.6-5,4.6-5h22.2c3,0,4.6,1.8,4.6,5v10.1h25.2
						c3,0,4.6-1.8,4.6-5v-46L302,224c-2.8-1-3.9-2.8-3.9-5.5V131c0-3.3,1.6-5,4.6-5H381.2z"/>
				</g>
			</g>
		</g>
	</g>
</g>
<g id="Logo_Grey">
	<g id="Capa_10_copia" class="st0">
		<rect x="0" y="0" class="st1" width="585.1" height="433"/>
	</g>
	<g>
		<path class="st8" d="M106,15.1c19.4,0,53.4,15.3,93.1,41.9c43.3,29,90.6,68.9,136.6,115.5c54.4,55.1,99.9,112.3,128.2,161
			c13.1,22.6,22,42.7,25.6,58.1c3.2,13.6,1.7,21.1-0.8,23.6c-2.1,2.1-6.3,2.6-9.5,2.6c-19.4,0-53.4-15.3-93.1-41.9
			c-43.3-29-90.6-68.9-136.6-115.5c-54.4-55.1-99.9-112.3-128.2-161c-13.1-22.6-22-42.7-25.6-58.1c-3.2-13.6-1.7-21.1,0.8-23.6
			C98.5,15.6,102.8,15.1,106,15.1L106,15.1 M106,0c-8.7,0-15.6,2.3-20.3,7c-29.8,30.1,38.7,148.4,153,264
			C334.8,368.5,432.8,433,479.1,433c8.7,0,15.6-2.3,20.3-7c29.8-30.1-38.7-148.4-153-264C250.3,64.5,152.4,0,106,0L106,0z"/>
	</g>
	<g>
		<path class="st8" d="M292.6,154.4c76.9,0,149,7.9,203,22.1c58.9,15.5,74.4,32.9,74.4,40s-15.6,24.4-74.4,40
			c-54,14.3-126.1,22.1-203,22.1s-149-7.9-203-22.1c-58.9-15.5-74.4-32.9-74.4-40s15.6-24.4,74.4-40
			C143.6,162.3,215.7,154.4,292.6,154.4 M292.6,139.3C131,139.3,0,173.9,0,216.5s131,77.2,292.6,77.2s292.6-34.6,292.6-77.2
			S454.1,139.3,292.6,139.3L292.6,139.3z"/>
	</g>
	<g>
		<path class="st8" d="M479.1,0v15.1c3.2,0,7.5,0.4,9.5,2.6c2.5,2.5,4,10,0.8,23.6c-3.6,15.4-12.4,35.5-25.6,58.1
			c-28.3,48.8-73.8,106-128.2,161C289.7,307,242.5,347,199.1,376c-39.8,26.6-73.7,41.9-93.1,41.9c-3.2,0-7.5-0.4-9.5-2.6
			c-2.5-2.5-4-10-0.8-23.6c3.6-15.4,12.4-35.5,25.6-58.1c28.3-48.8,73.8-106,128.2-161C295.4,126,342.6,86,386,57
			c39.8-26.6,73.7-41.9,93.1-41.9L479.1,0 M479.1,0c-46.4,0-144.3,64.5-240.5,161.9C124.4,277.6,55.9,395.8,85.7,426
			c4.7,4.8,11.6,7,20.3,7c46.4,0,144.3-64.5,240.5-161.9C460.7,155.4,529.2,37.2,499.4,7C494.7,2.3,487.8,0,479.1,0L479.1,0z"/>
	</g>
	<g id="Circle_copia_3">
		<circle class="st8" cx="292.6" cy="217.5" r="157"/>
		<g>
			<path class="st8" d="M292.6,396.7c-98.9,0-179.4-80.5-179.4-179.4c0-98.9,80.5-179.4,179.4-179.4c98.9,0,179.4,80.5,179.4,179.4
				C471.9,316.3,391.5,396.7,292.6,396.7z M292.6,62.6c-85.3,0-154.8,69.4-154.8,154.8s69.4,154.8,154.8,154.8
				s154.8-69.4,154.8-154.8S377.9,62.6,292.6,62.6z"/>
			<path class="st11" d="M292.6,39c24.1,0,47.4,4.7,69.4,14c21.2,9,40.3,21.8,56.7,38.2c16.4,16.4,29.2,35.5,38.2,56.7
				c9.3,22,14,45.3,14,69.4s-4.7,47.4-14,69.4c-9,21.2-21.8,40.3-38.2,56.7c-16.4,16.4-35.5,29.2-56.7,38.2c-22,9.3-45.3,14-69.4,14
				c-24.1,0-47.4-4.7-69.4-14c-21.2-9-40.3-21.8-56.7-38.2c-16.4-16.4-29.2-35.5-38.2-56.7c-9.3-22-14-45.3-14-69.4
				s4.7-47.4,14-69.4c9-21.2,21.8-40.3,38.2-56.7C182.8,74.9,201.9,62,223.1,53C245.1,43.7,268.5,39,292.6,39 M292.6,373.1
				c85.9,0,155.8-69.9,155.8-155.8S378.5,61.6,292.6,61.6s-155.8,69.9-155.8,155.8S206.7,373.1,292.6,373.1 M292.6,37
				c-99.6,0-180.4,80.8-180.4,180.4S193,397.7,292.6,397.7S472.9,317,472.9,217.4S392.2,37,292.6,37L292.6,37z M292.6,371.1
				c-84.9,0-153.8-68.8-153.8-153.8c0-84.9,68.8-153.8,153.8-153.8c84.9,0,153.8,68.8,153.8,153.8
				C446.3,302.3,377.5,371.1,292.6,371.1L292.6,371.1z"/>
		</g>
	</g>
	<g id="Number_copia_3">
		<g>
			
				<image style="overflow:visible;opacity:0.2;" width="716" height="723" xlink:href="B5773A0D.png"  transform="matrix(0.36 0 0 0.3917 179.6685 97.9913)">
			</image>
			<g>
				<g>
					<path class="st12" d="M247.7,125.9c2.3,0,3.7,1.5,3.7,4v193c0,2.5-1.4,4-3.7,4h-24c-2.5,0-3.7-1.5-3.7-4V164.2l-14.3,2
						c-3,0.5-4.9-1.3-4.9-4.5v-24.1c0-3.3,1.4-5,4.4-5.3L247.7,125.9z"/>
					<path class="st12" d="M381.2,125.9c3,0,4.6,1.8,4.6,5v23.1c0,3.3-1.6,5-4.6,5h-52v39.5l55,18.9c2.8,1,3.9,2.8,3.9,5.5v68.9
						c0,22.9-11.3,35.2-32.3,35.2h-27.7c-21,0-32.3-12.3-32.3-35.2v-8c0-3.3,1.6-5,4.6-5h22.2c3,0,4.6,1.8,4.6,5v10.1h25.2
						c3,0,4.6-1.8,4.6-5v-46L302,224c-2.8-1-3.9-2.8-3.9-5.5V131c0-3.3,1.6-5,4.6-5H381.2z"/>
				</g>
			</g>
		</g>
	</g>
</g>
</svg>
